<mxfile host="app.diagrams.net" modified="2021-10-20T15:19:45.023Z" agent="5.0 (Windows NT 10.0; Win64; x64) AppleWebKit/537.36 (KHTML, like Gecko) Chrome/94.0.4606.81 Safari/537.36" etag="RRjiwVRFynGa-pCQjuQP" version="15.5.6" type="github" pages="2">
  <diagram id="0a_ljepVSyJvJW5Bvh4A" name="Carreteras">
    <mxGraphModel dx="1865" dy="547" grid="1" gridSize="10" guides="1" tooltips="1" connect="1" arrows="1" fold="1" page="1" pageScale="1" pageWidth="827" pageHeight="1169" math="0" shadow="0">
      <root>
        <mxCell id="0" />
        <mxCell id="1" parent="0" />
        <mxCell id="KCo2ohYiySqyvsNcmzpJ-1" value="CARRETERA" style="rounded=0;whiteSpace=wrap;html=1;" vertex="1" parent="1">
          <mxGeometry x="-570" y="240" width="120" height="60" as="geometry" />
        </mxCell>
        <mxCell id="KCo2ohYiySqyvsNcmzpJ-3" value="TRAMO" style="rounded=0;whiteSpace=wrap;html=1;" vertex="1" parent="1">
          <mxGeometry x="-220" y="240" width="120" height="60" as="geometry" />
        </mxCell>
        <mxCell id="KCo2ohYiySqyvsNcmzpJ-4" value="MUNICIPIO" style="rounded=0;whiteSpace=wrap;html=1;" vertex="1" parent="1">
          <mxGeometry x="110" y="240" width="120" height="60" as="geometry" />
        </mxCell>
        <mxCell id="KCo2ohYiySqyvsNcmzpJ-5" value="pertenece" style="rhombus;whiteSpace=wrap;html=1;" vertex="1" parent="1">
          <mxGeometry x="-410" y="240" width="150" height="60" as="geometry" />
        </mxCell>
        <mxCell id="KCo2ohYiySqyvsNcmzpJ-6" value="" style="endArrow=none;html=1;rounded=0;entryX=0;entryY=0.5;entryDx=0;entryDy=0;exitX=1;exitY=0.5;exitDx=0;exitDy=0;" edge="1" parent="1" source="KCo2ohYiySqyvsNcmzpJ-5" target="KCo2ohYiySqyvsNcmzpJ-3">
          <mxGeometry width="50" height="50" relative="1" as="geometry">
            <mxPoint x="-260" y="270" as="sourcePoint" />
            <mxPoint x="-90" y="260" as="targetPoint" />
          </mxGeometry>
        </mxCell>
        <mxCell id="KCo2ohYiySqyvsNcmzpJ-8" value="" style="endArrow=none;html=1;rounded=0;" edge="1" parent="1" source="KCo2ohYiySqyvsNcmzpJ-1" target="KCo2ohYiySqyvsNcmzpJ-5">
          <mxGeometry width="50" height="50" relative="1" as="geometry">
            <mxPoint x="-490" y="269.5" as="sourcePoint" />
            <mxPoint x="-410" y="270" as="targetPoint" />
          </mxGeometry>
        </mxCell>
        <mxCell id="KCo2ohYiySqyvsNcmzpJ-11" value="pasa_por" style="rhombus;whiteSpace=wrap;html=1;" vertex="1" parent="1">
          <mxGeometry x="-70" y="240" width="150" height="60" as="geometry" />
        </mxCell>
        <mxCell id="KCo2ohYiySqyvsNcmzpJ-12" value="" style="endArrow=none;html=1;rounded=0;exitX=1;exitY=0.5;exitDx=0;exitDy=0;" edge="1" parent="1" source="KCo2ohYiySqyvsNcmzpJ-3" target="KCo2ohYiySqyvsNcmzpJ-11">
          <mxGeometry width="50" height="50" relative="1" as="geometry">
            <mxPoint x="-140" y="310" as="sourcePoint" />
            <mxPoint x="-90" y="260" as="targetPoint" />
          </mxGeometry>
        </mxCell>
        <mxCell id="KCo2ohYiySqyvsNcmzpJ-13" value="" style="endArrow=none;html=1;rounded=0;entryX=0;entryY=0.5;entryDx=0;entryDy=0;" edge="1" parent="1" source="KCo2ohYiySqyvsNcmzpJ-11" target="KCo2ohYiySqyvsNcmzpJ-4">
          <mxGeometry width="50" height="50" relative="1" as="geometry">
            <mxPoint x="90" y="310" as="sourcePoint" />
            <mxPoint x="140" y="260" as="targetPoint" />
          </mxGeometry>
        </mxCell>
        <mxCell id="KCo2ohYiySqyvsNcmzpJ-14" value="km_entrada" style="ellipse;whiteSpace=wrap;html=1;" vertex="1" parent="1">
          <mxGeometry x="-130" y="150" width="120" height="30" as="geometry" />
        </mxCell>
        <mxCell id="KCo2ohYiySqyvsNcmzpJ-15" value="km_salida" style="ellipse;whiteSpace=wrap;html=1;" vertex="1" parent="1">
          <mxGeometry x="20" y="150" width="120" height="30" as="geometry" />
        </mxCell>
        <mxCell id="KCo2ohYiySqyvsNcmzpJ-16" value="" style="endArrow=none;html=1;rounded=0;exitX=0.5;exitY=0;exitDx=0;exitDy=0;" edge="1" parent="1" source="KCo2ohYiySqyvsNcmzpJ-11" target="KCo2ohYiySqyvsNcmzpJ-15">
          <mxGeometry width="50" height="50" relative="1" as="geometry">
            <mxPoint x="30" y="220" as="sourcePoint" />
            <mxPoint x="80" y="170" as="targetPoint" />
          </mxGeometry>
        </mxCell>
        <mxCell id="KCo2ohYiySqyvsNcmzpJ-18" value="" style="endArrow=none;html=1;rounded=0;exitX=0.5;exitY=0;exitDx=0;exitDy=0;entryX=0.5;entryY=1;entryDx=0;entryDy=0;" edge="1" parent="1" source="KCo2ohYiySqyvsNcmzpJ-11" target="KCo2ohYiySqyvsNcmzpJ-14">
          <mxGeometry width="50" height="50" relative="1" as="geometry">
            <mxPoint x="15" y="250" as="sourcePoint" />
            <mxPoint x="77.0754206453305" y="179.64785660195912" as="targetPoint" />
          </mxGeometry>
        </mxCell>
      </root>
    </mxGraphModel>
  </diagram>
  <diagram id="H0yO8Gf2CkRzCC4jmNcZ" name="Gestión de vuelos">
    <mxGraphModel dx="1865" dy="547" grid="1" gridSize="10" guides="1" tooltips="1" connect="1" arrows="1" fold="1" page="1" pageScale="1" pageWidth="827" pageHeight="1169" math="0" shadow="0">
      <root>
        <mxCell id="-WRYyCjHbV81UQfwmqwS-0" />
        <mxCell id="-WRYyCjHbV81UQfwmqwS-1" parent="-WRYyCjHbV81UQfwmqwS-0" />
        <mxCell id="-WRYyCjHbV81UQfwmqwS-4" value="AEROPUERTO" style="rounded=0;whiteSpace=wrap;html=1;" vertex="1" parent="-WRYyCjHbV81UQfwmqwS-1">
          <mxGeometry x="-760" y="300" width="120" height="60" as="geometry" />
        </mxCell>
        <mxCell id="-WRYyCjHbV81UQfwmqwS-5" value="ciudad" style="ellipse;whiteSpace=wrap;html=1;" vertex="1" parent="-WRYyCjHbV81UQfwmqwS-1">
          <mxGeometry x="-800" y="170" width="90" height="30" as="geometry" />
        </mxCell>
        <mxCell id="-WRYyCjHbV81UQfwmqwS-7" value="nombre" style="ellipse;whiteSpace=wrap;html=1;" vertex="1" parent="-WRYyCjHbV81UQfwmqwS-1">
          <mxGeometry x="-670" y="160" width="90" height="30" as="geometry" />
        </mxCell>
        <mxCell id="-WRYyCjHbV81UQfwmqwS-8" value="código" style="ellipse;whiteSpace=wrap;html=1;" vertex="1" parent="-WRYyCjHbV81UQfwmqwS-1">
          <mxGeometry x="-690" y="210" width="90" height="30" as="geometry" />
        </mxCell>
        <mxCell id="-WRYyCjHbV81UQfwmqwS-9" value="pais" style="ellipse;whiteSpace=wrap;html=1;" vertex="1" parent="-WRYyCjHbV81UQfwmqwS-1">
          <mxGeometry x="-810" y="220" width="90" height="30" as="geometry" />
        </mxCell>
      </root>
    </mxGraphModel>
  </diagram>
</mxfile>
